<?xml version="1.0" encoding="utf-8"?>
<!-- Generator: Adobe Illustrator 23.1.1, SVG Export Plug-In . SVG Version: 6.00 Build 0)  -->
<svg version="1.1" id="Capa_1" xmlns="http://www.w3.org/2000/svg" xmlns:xlink="http://www.w3.org/1999/xlink" x="0px" y="0px"
	 viewBox="0 0 216.43 131" style="enable-background:new 0 0 216.43 131;" xml:space="preserve">
<style type="text/css">
	.st0{fill:none;}
	.st1{font-family:'HoeflerText-Regular';}
	.st2{font-size:36.244px;}
	.st3{fill:#090609;}
	.st4{fill:#090609;stroke:#090609;stroke-width:0.25;stroke-miterlimit:10;}
	.st5{font-family:'Raleway-LightItalic';}
	.st6{font-size:13.94px;}
</style>
<rect x="113.12" y="13.98" class="st0" width="98.03" height="92.54"/>
<text transform="matrix(1 0 0 1 113.1152 40.292)"><tspan x="0" y="0" class="st1 st2">Raúl</tspan><tspan x="0" y="29.27" class="st1 st2">Pérez </tspan><tspan x="0" y="58.55" class="st1 st2">Sastre</tspan></text>
<path class="st3" d="M44.26,14.02c-14.18,0-18.19,0.89-23.74,0.89c-3.29,0-6.56-0.58-9.86-0.58c-0.6,0-1.05,0-1.05,0.73
	c0,0.6,3.29,0.89,4.47,1.49c4.05,2.09,4.5,6.88,4.5,10.91c0,74.74,0.8,83.57-2.41,87.93c-2.84,3.99-7.9,2.54-7.9,4.05
	c0,1.29,7.43,0.16,15.22,0.16c8.08,0,17.31,1.46,17.31-0.16c0-1.63-6.46,0.5-10.28-3.9c-2.93-3.36-2.41-28.51-2.41-53.77
	c0-2.61,1.92-5.29,4.5-6.3c8.76-3.84,17.26,13.3,24.08,7.04c2.4-2.14,2.99-7.54-6.01-9.89c-10.47-2.86-13.68-3.71-13.99-3.79
	c-4.82-1.24-7.5-6.07-7.5-11.3c0-4.29,1.83-7.61,5.52-9.96c9.78-6.31,18.85-0.9,26.75-1.8c3.98-0.47,3.45-0.93,3.61,0.5
	c0.53,4.2-3.54,9.81-9.1,9.81c-2.95,0-4.89-0.68-5.75-1.99c0.16-1.05,0.24-1.75,0.24-2.14c0-2.48-1.96-3.71-5.86-3.71
	c-2.83,0-5.67,1.4-5.67,4.21c0,7.95,27.77,2.25,27.77,21c0,8.59-7.31,13.94-15.24,13.94c-7.19,0-17.7-6.09-19.58-0.31
	c-1.2,4.47,1.78,7.04,6.75,7.61c3.5,0.42,7.11,0.81,10.56,0.81c18.51,0,28.37-16.45,28.37-33.5C78.24,41.98,77.69,14.02,44.26,14.02
	z"/>
<line class="st4" x1="97.66" y1="13.98" x2="97.66" y2="120.32"/>
<rect x="115.7" y="107.92" class="st0" width="85.11" height="14.27"/>
<text transform="matrix(1 0 0 1 128.1177 118.0918)" class="st5 st6">Psicólogo</text>
<circle cx="120.4" cy="112.62" r="2.35"/>
<circle cx="194.78" cy="112.62" r="2.35"/>
</svg>
