<?xml version="1.0" encoding="utf-8"?>
<!-- Generator: Adobe Illustrator 23.1.1, SVG Export Plug-In . SVG Version: 6.00 Build 0)  -->
<svg version="1.1" id="Capa_1" xmlns="http://www.w3.org/2000/svg" xmlns:xlink="http://www.w3.org/1999/xlink" x="0px" y="0px"
	 viewBox="0 0 202.9 112.5" style="enable-background:new 0 0 202.9 112.5;" xml:space="preserve">
<style type="text/css">
	.st0{enable-background:new    ;}
	.st1{fill:#FFFFFF;}
</style>
<title>logo_raulaaaaaxsxasa</title>
<g class="st0">
	<path class="st1" d="M131.1,30.3c0,0.3-0.1,0.5-0.3,0.5c-0.4,0-1.2,0-2.2-0.1c-0.7-0.1-1.2-0.1-1.5-0.1c-0.4,0-0.9,0-1.6,0.1
		c-0.7,0.1-1.3,0.1-1.6,0.1l-5.5-8.9c-0.8-1.2-1.4-2-1.9-2.4c-0.5-0.4-1.4-0.5-2.9-0.5v7.8c0,0.8,0.1,1.4,0.3,1.8
		c0.2,0.3,0.6,0.6,1.1,0.8c0.5,0.2,1.3,0.4,2.3,0.5c0.2,0,0.3,0.2,0.3,0.5c0,0.3-0.1,0.5-0.3,0.5c-0.8,0-1.8,0-2.9-0.1
		c-1.1-0.1-2-0.1-2.7-0.1c-0.7,0-1.6,0-2.7,0.1c-1.1,0.1-2.1,0.1-2.9,0.1c-0.2,0-0.3-0.2-0.3-0.5c0-0.3,0.1-0.5,0.3-0.5
		c1-0.1,1.8-0.3,2.3-0.5c0.5-0.2,0.9-0.5,1.1-0.8c0.2-0.3,0.3-0.9,0.3-1.8V9.7c0-0.8-0.1-1.4-0.3-1.8c-0.2-0.3-0.6-0.6-1.1-0.8
		c-0.5-0.2-1.3-0.4-2.3-0.5c-0.2,0-0.3-0.2-0.3-0.5s0.1-0.5,0.3-0.5c0.8,0,1.8,0,2.9,0.1c1.1,0.1,2,0.1,2.7,0.1c0.7,0,1.6,0,2.7-0.1
		c1.1-0.1,2.1-0.1,2.9-0.1c2.7,0,4.8,0.6,6.3,1.7c1.5,1.1,2.2,2.7,2.2,4.8c0,1.3-0.5,2.5-1.5,3.6c-1,1.1-2.3,2-4,2.5l5.6,9.1
		c0.5,0.8,1.1,1.4,1.9,1.8c0.8,0.4,1.7,0.6,3,0.8C131,29.9,131.1,30,131.1,30.3z M121.9,12.2c0-3.5-1.5-5.3-4.6-5.3
		c-1,0-1.8,0.1-2.3,0.2c-0.5,0.2-0.9,0.4-1.1,0.8c-0.2,0.4-0.3,1-0.3,1.9v8.1c0.7,0.1,1.6,0.1,2.6,0.1c1.9,0,3.4-0.5,4.3-1.4
		C121.4,15.7,121.9,14.2,121.9,12.2z"/>
</g>
<g class="st0">
	<path class="st1" d="M143.6,31.2c-0.7,0-1.3-0.2-1.8-0.5c-0.5-0.3-0.8-0.8-1-1.4c-1.3,1.3-3,2-5.1,2c-1.1,0-2-0.3-2.7-1
		c-0.7-0.7-1-1.5-1-2.5c0-2.5,2.9-4.5,8.8-6L141,19v-0.1c0-0.9-0.2-1.6-0.6-2.1c-0.4-0.5-1-0.8-1.7-0.8s-1.3,0.2-1.8,0.5
		c-0.5,0.3-0.7,0.8-0.8,1.3c0,0.8-0.2,1.4-0.6,1.8s-0.9,0.7-1.6,0.7c-0.4,0-0.7-0.1-0.9-0.3c-0.2-0.2-0.4-0.5-0.4-0.9
		c0-0.9,0.8-1.9,2.5-2.9c1.7-1,3.3-1.5,4.7-1.5c1.3,0,2.4,0.4,3.2,1.2c0.8,0.8,1.2,1.8,1.2,3.1v0.2l-0.3,8.2v0.1
		c0,1.3,0.4,1.9,1.2,1.9c0.4,0,0.9-0.2,1.4-0.7l0.1,0c0.1,0,0.2,0.1,0.3,0.2c0.1,0.1,0.1,0.3,0.1,0.4c0,0.4-0.4,0.8-1.1,1.3
		C145.3,31,144.5,31.2,143.6,31.2z M140.8,23.1c-3.5,0.8-5.3,2.1-5.3,4c0,1.7,0.7,2.6,2,2.6c0.6,0,1.3-0.2,1.9-0.5s1-0.7,1.3-1.2
		L140.8,23.1z"/>
	<path class="st1" d="M165.4,29.7c0,0.3-0.1,0.4-0.3,0.4c-2.2,0.2-3.7,0.7-4.5,1.3c-0.2,0.1-0.3,0.2-0.5,0.2c-0.2,0-0.4-0.1-0.4-0.3
		l0.1-2.3c-1.8,1.6-3.4,2.4-4.9,2.4c-1.7,0-2.9-0.5-3.9-1.4c-0.9-0.9-1.4-2.2-1.4-3.8v-6.8c0-1.1-0.1-1.8-0.4-2.1
		c-0.3-0.4-0.8-0.5-1.6-0.5c-0.2,0-0.3,0-0.5,0c-0.2,0-0.3-0.2-0.3-0.5c0-0.4,0.1-0.6,0.3-0.6c1.4,0,3.2-0.3,5.5-0.8
		c0.2,0,0.3,0.2,0.3,0.5v10c0,1.4,0.3,2.4,0.8,3c0.5,0.6,1.3,0.9,2.5,0.9c0.7,0,1.3-0.1,1.9-0.4c0.5-0.3,1.1-0.7,1.7-1.4v-8
		c0-1.1-0.1-1.8-0.4-2.1c-0.3-0.4-0.8-0.5-1.7-0.5c-0.1,0-0.3,0-0.5,0c-0.2,0-0.3-0.2-0.3-0.5c0-0.4,0.1-0.6,0.3-0.6
		c1.4,0,3.2-0.3,5.5-0.8c0.2,0,0.3,0.2,0.3,0.5v11.6c0,0.8,0.1,1.4,0.4,1.7c0.2,0.3,0.8,0.5,1.7,0.6
		C165.3,29.2,165.4,29.3,165.4,29.7z M161.3,7.7c0,0.3-0.1,0.5-0.3,0.6l-6,3.7c-0.1,0.1-0.2,0.1-0.3,0.1c-0.1,0-0.2-0.1-0.4-0.2
		c-0.1-0.1-0.2-0.3-0.2-0.4c0-0.2,0.1-0.3,0.2-0.4l5.1-4.8c0.1-0.1,0.3-0.2,0.5-0.2c0.4,0,0.7,0.2,1,0.5
		C161.1,7,161.3,7.3,161.3,7.7z"/>
	<path class="st1" d="M175,30.3c0,0.3-0.1,0.5-0.3,0.5c-0.5,0-1.1,0-1.9-0.1c-0.9-0.1-1.6-0.1-2.2-0.1c-0.6,0-1.3,0-2.2,0.1
		c-0.8,0.1-1.4,0.1-1.9,0.1c-0.2,0-0.3-0.2-0.3-0.5c0-0.3,0.1-0.5,0.3-0.5c1-0.1,1.7-0.4,2-0.7c0.3-0.4,0.5-1.1,0.5-2.3V9.9
		c0-1-0.1-1.6-0.4-1.9c-0.2-0.3-0.8-0.5-1.7-0.6c-0.2,0-0.3-0.2-0.3-0.5c0-0.3,0.1-0.4,0.3-0.4c1.3-0.3,2.3-0.7,3.1-1
		c0.8-0.4,1.3-0.7,1.5-0.9c0.1-0.1,0.3-0.2,0.4-0.2c0.3,0,0.5,0.1,0.5,0.3c-0.2,2.7-0.3,4.8-0.3,6.3v15.8c0,1.2,0.2,2,0.5,2.3
		c0.3,0.4,1,0.6,2,0.7C175,29.8,175,30,175,30.3z"/>
</g>
<g class="st0">
	<path class="st1" d="M126.4,42.3c0,2.1-0.8,3.9-2.5,5.4s-3.7,2.2-6.1,2.2c-1.4,0-2.9-0.1-4.3-0.2V56c0,0.8,0.1,1.4,0.3,1.8
		c0.2,0.3,0.6,0.6,1.1,0.8c0.5,0.2,1.3,0.4,2.3,0.5c0.2,0,0.3,0.2,0.3,0.5c0,0.3-0.1,0.5-0.3,0.5c-0.8,0-1.8,0-2.9-0.1
		c-1.1-0.1-2-0.1-2.7-0.1c-0.7,0-1.6,0-2.7,0.1c-1.1,0.1-2.1,0.1-2.9,0.1c-0.2,0-0.3-0.2-0.3-0.5c0-0.3,0.1-0.5,0.3-0.5
		c1.5-0.2,2.5-0.4,3-0.8c0.5-0.4,0.8-1.1,0.8-2.2V39c0-0.8-0.1-1.4-0.3-1.8c-0.2-0.3-0.6-0.6-1.1-0.8c-0.5-0.2-1.3-0.4-2.3-0.5
		c-0.2,0-0.3-0.2-0.3-0.5s0.1-0.5,0.3-0.5c0.8,0,1.8,0,2.9,0.1c1.1,0.1,2,0.1,2.7,0.1s1.6,0,2.7-0.1c1.1-0.1,2.1-0.1,2.9-0.1
		c3,0,5.2,0.6,6.8,1.9C125.6,38,126.4,39.9,126.4,42.3z M122.4,42.3c0-1.9-0.5-3.5-1.4-4.5c-0.9-1.1-2.2-1.6-3.8-1.6
		c-0.9,0-1.7,0.1-2.2,0.2c-0.5,0.1-0.9,0.4-1.1,0.7c-0.2,0.3-0.3,1-0.3,1.9v8.3c0,0.5,0.2,0.9,0.5,1s1,0.3,2.1,0.3
		c2,0,3.5-0.6,4.6-1.7C121.9,45.8,122.4,44.3,122.4,42.3z"/>
	<path class="st1" d="M143.2,49.8c0,0.3-0.2,0.5-0.7,0.5h-9.9c-0.1,0.7-0.1,1.3-0.1,2c0,1.9,0.5,3.4,1.4,4.5s2.2,1.6,3.9,1.6
		c0.9,0,1.7-0.2,2.6-0.7c0.9-0.5,1.6-1,2.1-1.8l0.1,0c0.1,0,0.2,0.1,0.3,0.2s0.2,0.3,0.2,0.5c0,0.3-0.4,0.8-1.2,1.6
		c-0.8,0.8-1.6,1.4-2.5,1.8s-1.9,0.6-2.8,0.6c-2.2,0-4-0.8-5.5-2.4c-1.5-1.6-2.2-3.6-2.2-5.9c0-2.4,0.7-4.4,2.2-6
		c1.5-1.6,3.3-2.5,5.5-2.5c1.9,0,3.4,0.6,4.7,1.8C142.5,47,143.2,48.3,143.2,49.8z M139.9,48.2c0-0.9-0.3-1.7-0.9-2.3
		c-0.6-0.6-1.4-0.9-2.4-0.9c-0.9,0-1.7,0.4-2.4,1.2s-1.1,1.8-1.4,3.1l5-0.1c0.8,0,1.3-0.1,1.6-0.2S139.9,48.6,139.9,48.2z M141.7,37
		c0,0.3-0.1,0.5-0.3,0.6l-6,3.7c-0.1,0.1-0.2,0.1-0.3,0.1c-0.1,0-0.2-0.1-0.4-0.2c-0.1-0.1-0.2-0.3-0.2-0.4c0-0.2,0.1-0.3,0.2-0.4
		l5.1-4.8c0.1-0.1,0.3-0.2,0.5-0.2c0.4,0,0.7,0.2,1,0.5C141.6,36.2,141.7,36.6,141.7,37z"/>
	<path class="st1" d="M158,45.7c0,0.5-0.1,0.9-0.4,1.2s-0.7,0.5-1.1,0.5c-0.5,0-1.1-0.2-1.6-0.5c-0.4-0.3-0.8-0.4-1.1-0.4
		c-0.8,0-1.6,0.5-2.4,1.4V56c0,1.1,0.2,1.8,0.5,2.2s1.1,0.7,2.3,0.9c0.2,0,0.3,0.2,0.3,0.5c0,0.3-0.1,0.5-0.3,0.5
		c-0.5,0-1.2,0-2.1-0.1c-1-0.1-1.8-0.1-2.4-0.1c-0.6,0-1.3,0-2.2,0.1c-0.8,0.1-1.4,0.1-1.9,0.1c-0.2,0-0.3-0.2-0.3-0.5
		c0-0.3,0.1-0.5,0.3-0.5c1.1-0.1,1.7-0.4,2-0.7c0.3-0.4,0.4-1.1,0.4-2.3v-6.7c0-1-0.1-1.6-0.4-1.9c-0.2-0.3-0.8-0.5-1.7-0.6
		c-0.2,0-0.3-0.2-0.3-0.5c0-0.3,0.1-0.4,0.3-0.4c1.2-0.3,2.2-0.6,3-1s1.3-0.7,1.5-1c0.1-0.1,0.3-0.2,0.4-0.2c0.3,0,0.5,0.1,0.5,0.3
		l-0.1,2.3c1-0.9,1.8-1.5,2.5-1.9c0.7-0.4,1.4-0.5,2.1-0.5c0.6,0,1,0.2,1.4,0.5S158,45.2,158,45.7z"/>
	<path class="st1" d="M173.6,49.8c0,0.3-0.2,0.5-0.7,0.5H163c-0.1,0.7-0.1,1.3-0.1,2c0,1.9,0.5,3.4,1.4,4.5c0.9,1,2.2,1.6,3.9,1.6
		c0.9,0,1.7-0.2,2.6-0.7c0.9-0.5,1.6-1,2.1-1.8l0.1,0c0.1,0,0.2,0.1,0.3,0.2c0.1,0.1,0.2,0.3,0.2,0.5c0,0.3-0.4,0.8-1.2,1.6
		c-0.8,0.8-1.6,1.4-2.5,1.8c-0.9,0.4-1.9,0.6-2.8,0.6c-2.2,0-4-0.8-5.5-2.4c-1.5-1.6-2.2-3.6-2.2-5.9c0-2.4,0.7-4.4,2.2-6
		c1.5-1.6,3.3-2.5,5.5-2.5c1.9,0,3.4,0.6,4.7,1.8C173,47,173.6,48.3,173.6,49.8z M170.3,48.2c0-0.9-0.3-1.7-0.9-2.3
		c-0.6-0.6-1.4-0.9-2.4-0.9c-0.9,0-1.7,0.4-2.4,1.2s-1.1,1.8-1.4,3.1l5-0.1c0.8,0,1.3-0.1,1.6-0.2C170.1,48.8,170.3,48.6,170.3,48.2
		z"/>
	<path class="st1" d="M190.7,55.6c-0.7,1.8-1.2,3.3-1.5,4.5c-0.8-0.1-2.9-0.2-6.3-0.2c-3.6,0-5.7,0.1-6.4,0.2
		c-0.2,0-0.3-0.1-0.3-0.4l0.1-0.2l9.9-13.7h-4.4c-0.8,0-1.5,0.3-2.2,0.9c-0.7,0.6-1.2,1.3-1.5,2.1c-0.1,0.2-0.2,0.3-0.6,0.3
		c-0.3,0-0.5-0.1-0.5-0.3c0.8-2.1,1.3-3.6,1.5-4.5c0.6,0.1,2.4,0.2,5.4,0.2c3.5,0,5.6-0.1,6.2-0.2c0.2,0,0.3,0.1,0.3,0.4l0,0.2
		l-9.8,13.6h5.4c0.8,0,1.5-0.3,2.2-0.9c0.7-0.6,1.2-1.3,1.4-2.1c0.1-0.2,0.3-0.3,0.6-0.3C190.6,55.3,190.7,55.4,190.7,55.6z"/>
</g>
<g class="st0">
	<path class="st1" d="M121.9,82.1c0,2.4-0.7,4.3-2.1,5.7c-1.4,1.4-3.4,2.1-5.8,2.1c-1.1,0-2.4-0.2-3.9-0.6c-1.4-0.4-2.5-0.5-3.4-0.5
		c-0.1-2.1-0.2-4.1-0.4-6.2c0-0.2,0.2-0.3,0.5-0.3c0.3,0,0.4,0.1,0.5,0.3c0.7,2.2,1.5,3.8,2.5,4.7s2.4,1.4,4.3,1.4
		c1.5,0,2.6-0.4,3.4-1.3s1.2-2,1.2-3.6c0-1-0.4-1.9-1.1-2.7s-2.2-1.9-4.5-3.3c-2.6-1.5-4.3-2.8-5.1-3.8c-0.8-1.1-1.2-2.2-1.2-3.5
		c0-2,0.7-3.6,2.2-5c1.5-1.4,3.3-2,5.5-2c0.8,0,1.8,0.1,2.9,0.3c1,0.2,1.9,0.3,2.7,0.3c0.1,2.1,0.3,4,0.6,5.6c0,0.2-0.2,0.3-0.5,0.3
		c-0.3,0-0.5-0.1-0.6-0.3c-0.4-1.8-1-3.1-1.8-3.9c-0.8-0.8-1.9-1.2-3.4-1.2c-1.4,0-2.4,0.4-3.2,1.2c-0.8,0.8-1.2,1.9-1.2,3.2
		c0,0.9,0.3,1.7,1,2.5c0.7,0.8,2.1,1.8,4.4,3.1c2.7,1.5,4.4,2.8,5.2,3.9S121.9,80.9,121.9,82.1z"/>
</g>
<g class="st0">
	<path class="st1" d="M136.2,89.8c-0.7,0-1.3-0.2-1.8-0.5c-0.5-0.3-0.8-0.8-1-1.4c-1.3,1.3-3,2-5.1,2c-1.1,0-2-0.3-2.7-1
		c-0.7-0.7-1-1.5-1-2.5c0-2.5,2.9-4.5,8.8-6l0.1-2.8v-0.1c0-0.9-0.2-1.6-0.6-2.1c-0.4-0.5-1-0.8-1.7-0.8s-1.3,0.2-1.8,0.5
		c-0.5,0.3-0.7,0.8-0.8,1.3c0,0.8-0.2,1.4-0.6,1.8s-0.9,0.7-1.6,0.7c-0.4,0-0.7-0.1-0.9-0.3c-0.2-0.2-0.4-0.5-0.4-0.9
		c0-0.9,0.8-1.9,2.5-2.9c1.7-1,3.3-1.5,4.7-1.5c1.3,0,2.4,0.4,3.2,1.2c0.8,0.8,1.2,1.8,1.2,3.1v0.2l-0.3,8.2V86
		c0,1.3,0.4,1.9,1.2,1.9c0.4,0,0.9-0.2,1.4-0.7l0.1,0c0.1,0,0.2,0.1,0.3,0.2c0.1,0.1,0.1,0.3,0.1,0.4c0,0.4-0.4,0.8-1.1,1.3
		C137.8,89.5,137,89.8,136.2,89.8z M133.4,81.6c-3.5,0.8-5.3,2.1-5.3,4c0,1.7,0.7,2.6,2,2.6c0.6,0,1.3-0.2,1.9-0.5
		c0.6-0.3,1-0.7,1.3-1.2L133.4,81.6z"/>
</g>
<g class="st0">
	<path class="st1" d="M152.4,84.7c0,1.5-0.6,2.7-1.7,3.7c-1.2,1-2.6,1.5-4.2,1.5c-0.6,0-1.5-0.1-2.7-0.4c-0.9-0.2-1.5-0.3-1.8-0.3
		c-0.1-0.8-0.3-2.1-0.7-3.9c0-0.2,0.2-0.3,0.5-0.3c0.3,0,0.5,0.1,0.5,0.3c0.3,0.9,0.8,1.7,1.6,2.3c0.8,0.7,1.7,1,2.5,1
		c0.9,0,1.6-0.2,2.1-0.7c0.5-0.5,0.8-1.2,0.8-2.1c0-0.6-0.2-1.1-0.6-1.5c-0.4-0.4-1.3-1-2.7-1.6c-1.8-0.8-3-1.6-3.6-2.4
		c-0.6-0.7-0.9-1.6-0.9-2.6c0-1.3,0.5-2.4,1.6-3.3c1.1-0.9,2.4-1.4,3.9-1.4c0.6,0,1.5,0.1,2.6,0.3c0.6,0.1,1,0.2,1.2,0.2
		c0,1.4,0.1,2.6,0.2,3.6c0,0.2-0.2,0.3-0.5,0.3c-0.3,0-0.5-0.1-0.5-0.3c-0.1-0.9-0.5-1.6-1-2.1c-0.5-0.5-1.2-0.8-1.9-0.8
		c-1.9,0-2.8,0.8-2.8,2.5c0,0.6,0.2,1.1,0.7,1.5c0.4,0.5,1.4,1.1,2.9,1.8c1.8,0.9,3,1.7,3.5,2.3C152.2,83.2,152.4,83.9,152.4,84.7z"
		/>
	<path class="st1" d="M166.1,75c0,0.7-0.2,1-0.5,1l-5.4-0.1v8.7c0,2.3,0.8,3.4,2.4,3.4c1,0,1.9-0.2,2.7-0.7c0.1,0,0.2,0.1,0.3,0.2
		c0.1,0.1,0.1,0.3,0.1,0.4c0,0.3-0.4,0.7-1.3,1.2c-0.9,0.5-1.9,0.8-3,0.8c-1.4,0-2.5-0.4-3.3-1.3c-0.8-0.8-1.2-1.9-1.2-3.3V85
		l0.1-8.8c0-0.3-0.1-0.5-0.4-0.5h-1.4c-0.3,0-0.4-0.2-0.4-0.5c0-0.2,0.1-0.4,0.3-0.5c1.7-1,3.1-2.4,4.4-4.2c0.1-0.2,0.3-0.3,0.5-0.3
		c0.3,0,0.5,0.1,0.5,0.3l-0.1,3.5h5.3C165.9,74,166.1,74.3,166.1,75z"/>
	<path class="st1" d="M180.4,75c0,0.5-0.1,0.9-0.4,1.2c-0.3,0.3-0.7,0.5-1.1,0.5c-0.5,0-1.1-0.2-1.6-0.5c-0.4-0.3-0.8-0.4-1.1-0.4
		c-0.8,0-1.6,0.5-2.4,1.4v8.2c0,1.1,0.2,1.8,0.5,2.2s1.1,0.7,2.3,0.9c0.2,0,0.3,0.2,0.3,0.5c0,0.3-0.1,0.5-0.3,0.5
		c-0.5,0-1.2,0-2.1-0.1c-1-0.1-1.8-0.1-2.4-0.1c-0.6,0-1.3,0-2.2,0.1c-0.8,0.1-1.4,0.1-1.9,0.1c-0.2,0-0.3-0.2-0.3-0.5
		c0-0.3,0.1-0.5,0.3-0.5c1.1-0.1,1.7-0.4,2-0.7c0.3-0.4,0.4-1.1,0.4-2.3v-6.7c0-1-0.1-1.6-0.4-1.9c-0.2-0.3-0.8-0.5-1.7-0.6
		c-0.2,0-0.3-0.2-0.3-0.5c0-0.3,0.1-0.4,0.3-0.4c1.2-0.3,2.2-0.6,3-1s1.3-0.7,1.5-1c0.1-0.1,0.3-0.2,0.4-0.2c0.3,0,0.5,0.1,0.5,0.3
		l-0.1,2.3c1-0.9,1.8-1.5,2.5-1.9c0.7-0.4,1.4-0.5,2.1-0.5c0.6,0,1,0.2,1.4,0.5S180.4,74.5,180.4,75z"/>
	<path class="st1" d="M196.1,79.1c0,0.3-0.2,0.5-0.7,0.5h-9.9c-0.1,0.7-0.1,1.3-0.1,2c0,1.9,0.5,3.4,1.4,4.5c0.9,1,2.2,1.6,3.9,1.6
		c0.9,0,1.7-0.2,2.6-0.7c0.9-0.5,1.6-1,2.1-1.8l0.1,0c0.1,0,0.2,0.1,0.3,0.2s0.2,0.3,0.2,0.5c0,0.3-0.4,0.8-1.2,1.6
		c-0.8,0.8-1.6,1.4-2.5,1.8c-0.9,0.4-1.9,0.6-2.8,0.6c-2.2,0-4-0.8-5.5-2.4s-2.2-3.6-2.2-5.9c0-2.4,0.7-4.4,2.2-6
		c1.5-1.6,3.3-2.5,5.5-2.5c1.9,0,3.4,0.6,4.7,1.8C195.4,76.3,196.1,77.6,196.1,79.1z M192.8,77.5c0-0.9-0.3-1.7-0.9-2.3
		c-0.6-0.6-1.4-0.9-2.4-0.9c-0.9,0-1.7,0.4-2.4,1.2s-1.1,1.8-1.4,3.1l5-0.1c0.8,0,1.3-0.1,1.6-0.2S192.8,77.9,192.8,77.5z"/>
</g>
<path class="st1" d="M36,4.3c-14.2,0-18.2,0.9-23.7,0.9C9,5.2,5.7,4.6,2.4,4.6c-0.6,0-1.1,0-1.1,0.7s3.3,0.9,4.5,1.5
	c4,2.1,4.5,6.9,4.5,10.9c0,74.7,0.8,83.6-2.4,87.9c-2.8,4-7.9,2.5-7.9,4c0,1.3,7.4,0.2,15.2,0.2c8.1,0,17.3,1.5,17.3-0.2
	s-6.5,0.5-10.3-3.9c-2.9-3.4-2.4-28.5-2.4-53.8c0.1-2.8,1.9-5.3,4.5-6.3c8.8-3.8,17.3,13.3,24.1,7c2.4-2.1,3-7.5-6-9.9
	c-10.5-2.9-13.7-3.7-14-3.8c-4.8-1.2-7.5-6.1-7.5-11.3c-0.1-4.1,2-7.9,5.5-10c9.8-6.3,18.9-0.9,26.8-1.8c4-0.5,3.5-0.9,3.6,0.5
	c0.5,4.2-3.5,9.8-9.1,9.8c-3,0-4.9-0.7-5.8-2c0.1-0.6,0.2-1.3,0.2-1.9c0-2.5-2-3.7-5.9-3.7c-2.8,0-5.7,1.4-5.7,4.2
	c0,8,27.8,2.2,27.8,21c0,8.6-7.3,13.9-15.2,13.9c-7.2,0-17.7-6.1-19.6-0.3c-1.2,4.5,1.8,7,6.7,7.6c3.5,0.5,7,0.7,10.6,0.8
	c18.5-0.1,28.4-16.5,28.4-33.6C70,32.3,69.4,4.3,36,4.3z"/>
<line class="st1" x1="89.4" y1="4.3" x2="89.4" y2="110.6"/>
<g class="st0">
	<path class="st1" d="M122.3,98.5h3.9c0.3,0,0.6,0.1,0.9,0.2c0.3,0.1,0.5,0.3,0.7,0.6c0.2,0.2,0.3,0.5,0.4,0.8
		c0.1,0.3,0.1,0.6,0.1,0.9c0,0.4-0.1,0.9-0.3,1.3c-0.2,0.4-0.4,0.8-0.7,1.2s-0.7,0.6-1.1,0.8c-0.4,0.2-0.8,0.3-1.3,0.3h-3.2
		l-0.8,3.7h-0.7L122.3,98.5z M125.1,104c0.4,0,0.7-0.1,1-0.3c0.3-0.2,0.6-0.4,0.8-0.7c0.2-0.3,0.4-0.6,0.5-0.9s0.2-0.7,0.2-1
		c0-0.3,0-0.5-0.1-0.8c-0.1-0.2-0.2-0.4-0.3-0.6c-0.1-0.2-0.3-0.3-0.5-0.4c-0.2-0.1-0.4-0.2-0.7-0.2h-3.1l-1,4.9H125.1z"/>
	<path class="st1" d="M130.5,108.6c-0.5,0-1-0.1-1.5-0.3c-0.5-0.2-0.8-0.5-1.1-0.8l0.4-0.5c0.3,0.4,0.6,0.6,1,0.8
		c0.4,0.2,0.8,0.3,1.2,0.3c0.3,0,0.6,0,0.9-0.1c0.3-0.1,0.5-0.2,0.7-0.3c0.2-0.1,0.4-0.3,0.5-0.5s0.2-0.5,0.2-0.7
		c0-0.4-0.2-0.6-0.5-0.8c-0.3-0.2-0.8-0.3-1.4-0.5c-0.3-0.1-0.6-0.2-0.9-0.2c-0.2-0.1-0.4-0.2-0.6-0.3c-0.2-0.1-0.3-0.2-0.4-0.4
		c-0.1-0.1-0.1-0.3-0.1-0.5c0-0.4,0.1-0.8,0.3-1.1c0.2-0.3,0.4-0.6,0.7-0.8c0.3-0.2,0.6-0.4,1-0.5s0.8-0.2,1.1-0.2
		c0.5,0,1,0.1,1.4,0.3c0.4,0.2,0.6,0.4,0.8,0.7l-0.5,0.4c-0.2-0.3-0.4-0.5-0.7-0.6c-0.3-0.1-0.7-0.2-1.1-0.2c-0.3,0-0.6,0-0.8,0.1
		c-0.3,0.1-0.5,0.2-0.7,0.3c-0.2,0.1-0.4,0.3-0.5,0.5s-0.2,0.5-0.2,0.8c0,0.2,0,0.3,0.1,0.4c0.1,0.1,0.2,0.2,0.3,0.3
		c0.1,0.1,0.3,0.1,0.5,0.2c0.2,0.1,0.4,0.1,0.7,0.2c0.4,0.1,0.7,0.2,1,0.3s0.5,0.2,0.7,0.3c0.2,0.1,0.4,0.3,0.5,0.4s0.2,0.4,0.2,0.6
		c0,0.4-0.1,0.7-0.2,1c-0.2,0.3-0.4,0.6-0.7,0.8c-0.3,0.2-0.6,0.4-1,0.5C131.4,108.5,131,108.6,130.5,108.6z"/>
	<path class="st1" d="M136.3,101.2h0.7l-1.5,7.2h-0.7L136.3,101.2z M136.9,98.2h0.7l-0.3,1.3h-0.7L136.9,98.2z"/>
</g>
<g class="st0">
	<path class="st1" d="M140.5,108.6c-0.4,0-0.8-0.1-1.1-0.2c-0.3-0.2-0.6-0.4-0.9-0.7c-0.2-0.3-0.4-0.6-0.5-1
		c-0.1-0.4-0.2-0.8-0.2-1.2c0-0.6,0.1-1.2,0.3-1.7s0.5-1,0.9-1.4c0.4-0.4,0.8-0.7,1.4-1c0.5-0.2,1.1-0.4,1.6-0.4
		c0.6,0,1.2,0.1,1.6,0.4c0.4,0.3,0.7,0.7,0.8,1.2l-0.7,0.2c-0.1-0.4-0.3-0.7-0.7-0.9s-0.7-0.3-1.2-0.3c-0.4,0-0.9,0.1-1.3,0.3
		c-0.4,0.2-0.8,0.5-1.1,0.8c-0.3,0.3-0.6,0.7-0.8,1.2c-0.2,0.5-0.3,0.9-0.3,1.4c0,0.4,0.1,0.7,0.2,1s0.2,0.6,0.4,0.8
		c0.2,0.2,0.4,0.4,0.7,0.5c0.3,0.1,0.5,0.2,0.8,0.2c0.2,0,0.5,0,0.7-0.1s0.5-0.2,0.7-0.3c0.2-0.1,0.4-0.3,0.6-0.4
		c0.2-0.2,0.3-0.3,0.4-0.5l0.6,0.2c-0.1,0.3-0.3,0.5-0.6,0.7c-0.2,0.2-0.5,0.4-0.8,0.6c-0.3,0.2-0.6,0.3-0.9,0.4
		C141.1,108.5,140.8,108.6,140.5,108.6z"/>
</g>
<g class="st0">
	<path class="st1" d="M147.7,108.6c-0.4,0-0.8-0.1-1.1-0.2c-0.3-0.2-0.6-0.4-0.8-0.6c-0.2-0.3-0.4-0.6-0.5-1
		c-0.1-0.4-0.2-0.8-0.2-1.2c0-0.6,0.1-1.1,0.4-1.7s0.6-1,1-1.4c0.4-0.4,0.9-0.7,1.4-1s1-0.4,1.6-0.4c0.4,0,0.8,0.1,1.1,0.2
		c0.3,0.2,0.6,0.4,0.8,0.7c0.2,0.3,0.4,0.6,0.5,1c0.1,0.4,0.2,0.8,0.2,1.2c0,0.6-0.1,1.1-0.4,1.7c-0.2,0.5-0.6,1-0.9,1.4
		c-0.4,0.4-0.8,0.7-1.4,1C148.8,108.4,148.2,108.6,147.7,108.6z M147.8,107.9c0.4,0,0.8-0.1,1.2-0.3c0.4-0.2,0.8-0.5,1.1-0.8
		c0.3-0.3,0.6-0.7,0.8-1.2c0.2-0.5,0.3-0.9,0.3-1.4c0-0.4-0.1-0.7-0.2-1c-0.1-0.3-0.2-0.6-0.4-0.8c-0.2-0.2-0.4-0.4-0.7-0.5
		s-0.5-0.2-0.9-0.2c-0.4,0-0.8,0.1-1.2,0.3c-0.4,0.2-0.8,0.5-1.1,0.8c-0.3,0.3-0.6,0.8-0.8,1.2c-0.2,0.5-0.3,0.9-0.3,1.4
		c0,0.4,0.1,0.7,0.2,1s0.2,0.6,0.4,0.8c0.2,0.2,0.4,0.4,0.7,0.5C147.2,107.9,147.5,107.9,147.8,107.9z M149.5,99.7l-0.4-0.2l1.1-1.2
		h0.8L149.5,99.7z"/>
</g>
<g class="st0">
	<path class="st1" d="M154,108.5c-0.3,0-0.6-0.1-0.7-0.3s-0.3-0.4-0.3-0.7c0-0.1,0-0.2,0-0.3l1.9-8.9h0.7l-1.9,8.7c0,0,0,0.1,0,0.1
		c0,0,0,0.1,0,0.1c0,0.2,0.1,0.3,0.2,0.5s0.3,0.2,0.5,0.2c0.1,0,0.2,0,0.4,0c0.1,0,0.3-0.1,0.4-0.1v0.6c-0.2,0.1-0.4,0.1-0.6,0.2
		C154.3,108.5,154.1,108.5,154,108.5z"/>
</g>
<g class="st0">
	<path class="st1" d="M159,108.6c-0.4,0-0.8-0.1-1.1-0.2c-0.3-0.2-0.6-0.4-0.8-0.6c-0.2-0.3-0.4-0.6-0.5-1c-0.1-0.4-0.2-0.8-0.2-1.2
		c0-0.6,0.1-1.1,0.4-1.7s0.6-1,1-1.4c0.4-0.4,0.9-0.7,1.4-1s1-0.4,1.6-0.4c0.4,0,0.8,0.1,1.1,0.2c0.3,0.2,0.6,0.4,0.8,0.7
		c0.2,0.3,0.4,0.6,0.5,1c0.1,0.4,0.2,0.8,0.2,1.2c0,0.6-0.1,1.1-0.4,1.7c-0.2,0.5-0.6,1-0.9,1.4c-0.4,0.4-0.8,0.7-1.4,1
		C160.1,108.4,159.5,108.6,159,108.6z M159.1,107.9c0.4,0,0.8-0.1,1.2-0.3c0.4-0.2,0.8-0.5,1.1-0.8c0.3-0.3,0.6-0.7,0.8-1.2
		c0.2-0.5,0.3-0.9,0.3-1.4c0-0.4-0.1-0.7-0.2-1c-0.1-0.3-0.2-0.6-0.4-0.8c-0.2-0.2-0.4-0.4-0.7-0.5s-0.5-0.2-0.9-0.2
		c-0.4,0-0.8,0.1-1.2,0.3c-0.4,0.2-0.8,0.5-1.1,0.8c-0.3,0.3-0.6,0.8-0.8,1.2c-0.2,0.5-0.3,0.9-0.3,1.4c0,0.4,0.1,0.7,0.2,1
		s0.2,0.6,0.4,0.8c0.2,0.2,0.4,0.4,0.7,0.5C158.5,107.9,158.8,107.9,159.1,107.9z"/>
	<path class="st1" d="M166.2,111.5c-0.8,0-1.4-0.2-1.8-0.5c-0.4-0.3-0.7-0.7-0.9-1.2l0.5-0.3c0.2,0.5,0.5,0.9,0.9,1.1
		c0.4,0.2,0.9,0.3,1.4,0.3c0.3,0,0.7-0.1,1-0.2c0.3-0.1,0.6-0.3,0.9-0.5c0.3-0.2,0.5-0.4,0.7-0.7c0.2-0.3,0.3-0.6,0.4-1l0.3-1.6
		c-0.2,0.2-0.4,0.4-0.6,0.6s-0.5,0.4-0.7,0.5c-0.3,0.1-0.5,0.2-0.8,0.3c-0.3,0.1-0.5,0.1-0.8,0.1c-0.4,0-0.8-0.1-1.1-0.3
		c-0.3-0.2-0.6-0.4-0.8-0.7c-0.2-0.3-0.4-0.6-0.5-1s-0.2-0.7-0.2-1.1c0-0.6,0.1-1.1,0.3-1.6c0.2-0.5,0.5-1,0.9-1.4
		c0.4-0.4,0.8-0.8,1.3-1c0.5-0.3,1-0.4,1.6-0.4c0.6,0,1.1,0.2,1.5,0.5c0.4,0.3,0.7,0.7,0.9,1.2l0.3-1.6h0.6l-1.6,7.4
		c-0.1,0.5-0.3,0.9-0.5,1.3c-0.3,0.4-0.6,0.7-0.9,0.9c-0.4,0.2-0.7,0.4-1.2,0.6C167,111.5,166.6,111.5,166.2,111.5z M167.1,107.9
		c0.3,0,0.6-0.1,0.9-0.2c0.3-0.1,0.6-0.3,0.8-0.5c0.3-0.2,0.5-0.4,0.7-0.6s0.3-0.5,0.4-0.7l0.5-2.4c0-0.3-0.1-0.5-0.3-0.8
		c-0.1-0.2-0.3-0.4-0.5-0.6c-0.2-0.2-0.4-0.3-0.6-0.4c-0.2-0.1-0.5-0.1-0.8-0.1c-0.5,0-0.9,0.1-1.3,0.3s-0.8,0.5-1.1,0.9
		c-0.3,0.4-0.5,0.8-0.7,1.2s-0.3,0.9-0.3,1.3c0,0.3,0.1,0.7,0.2,1s0.2,0.6,0.4,0.8c0.2,0.2,0.4,0.4,0.7,0.5
		C166.5,107.9,166.8,107.9,167.1,107.9z"/>
	<path class="st1" d="M175.1,108.6c-0.4,0-0.8-0.1-1.1-0.2c-0.3-0.2-0.6-0.4-0.8-0.6c-0.2-0.3-0.4-0.6-0.5-1
		c-0.1-0.4-0.2-0.8-0.2-1.2c0-0.6,0.1-1.1,0.4-1.7s0.6-1,1-1.4c0.4-0.4,0.9-0.7,1.4-1s1-0.4,1.6-0.4c0.4,0,0.8,0.1,1.1,0.2
		c0.3,0.2,0.6,0.4,0.8,0.7c0.2,0.3,0.4,0.6,0.5,1c0.1,0.4,0.2,0.8,0.2,1.2c0,0.6-0.1,1.1-0.4,1.7c-0.2,0.5-0.6,1-0.9,1.4
		c-0.4,0.4-0.8,0.7-1.4,1C176.2,108.4,175.6,108.6,175.1,108.6z M175.2,107.9c0.4,0,0.8-0.1,1.2-0.3c0.4-0.2,0.8-0.5,1.1-0.8
		c0.3-0.3,0.6-0.7,0.8-1.2c0.2-0.5,0.3-0.9,0.3-1.4c0-0.4-0.1-0.7-0.2-1c-0.1-0.3-0.2-0.6-0.4-0.8c-0.2-0.2-0.4-0.4-0.7-0.5
		s-0.5-0.2-0.9-0.2c-0.4,0-0.8,0.1-1.2,0.3c-0.4,0.2-0.8,0.5-1.1,0.8c-0.3,0.3-0.6,0.8-0.8,1.2c-0.2,0.5-0.3,0.9-0.3,1.4
		c0,0.4,0.1,0.7,0.2,1s0.2,0.6,0.4,0.8c0.2,0.2,0.4,0.4,0.7,0.5C174.6,107.9,174.9,107.9,175.2,107.9z"/>
</g>
<circle class="st1" cx="112.1" cy="102.9" r="2.3"/>
<circle class="st1" cx="186.5" cy="102.9" r="2.4"/>
</svg>
